#extradata 0:        2, 0x0030001c
#tb 0: 1/1000
#media_type 0: audio
#codec_id 0: aac
#sample_rate 0: 16000
#channel_layout_name 0: mono
0,       -132,       -132,       64,      153, 0xbb6e432f, S=1, Skip Samples,       10, 0x02c80048
0,        -68,        -68,       64,      185, 0xa01f4ff3
0,         -4,         -4,       64,      126, 0x85503ce6
0,         60,         60,       64,      246, 0x652c7b59
0,        124,        124,       64,      162, 0xc9f04da0
0,        188,        188,       64,      135, 0x71fa3be0
0,        252,        252,       64,      246, 0x7a6f7788
0,        316,        316,       64,      262, 0xd3097781
0,        380,        380,       64,       60, 0x09a118f5
0,        444,        444,       64,      255, 0xbab5793c
0,        508,        508,       64,      153, 0x6b6a44fb
0,        572,        572,       64,      160, 0x550e4530
0,        636,        636,       64,      215, 0x7fe66144
0,        700,        700,       64,      144, 0xcd723f7d
0,        764,        764,       64,      187, 0x2a0b5c1b
0,        828,        828,       64,      177, 0xb8c355d5
